<?xml version="1.0" encoding="UTF-8" standalone="no"?>
<svg
   xmlns:dc="http://purl.org/dc/elements/1.1/"
   xmlns:cc="http://creativecommons.org/ns#"
   xmlns:rdf="http://www.w3.org/1999/02/22-rdf-syntax-ns#"
   xmlns:svg="http://www.w3.org/2000/svg"
   xmlns="http://www.w3.org/2000/svg"
   xmlns:sodipodi="http://sodipodi.sourceforge.net/DTD/sodipodi-0.dtd"
   xmlns:inkscape="http://www.inkscape.org/namespaces/inkscape"
   inkscape:version="1.0 (4035a4fb49, 2020-05-01)"
   sodipodi:docname="temp-alert.svg"
   xml:space="preserve"
   style="enable-background:new 0 0 512.006 512.006;"
   viewBox="0 0 512.006 512.006"
   y="0px"
   x="0px"
   id="Capa_1"
   version="1.1"><metadata
   id="metadata51"><rdf:RDF><cc:Work
       rdf:about=""><dc:format>image/svg+xml</dc:format><dc:type
         rdf:resource="http://purl.org/dc/dcmitype/StillImage" /><dc:title></dc:title></cc:Work></rdf:RDF></metadata><defs
   id="defs49" /><sodipodi:namedview
   inkscape:current-layer="Capa_1"
   inkscape:cy="144.54591"
   inkscape:cx="256.00299"
   inkscape:zoom="1.4355301"
   inkscape:pagecheckerboard="true"
   showgrid="false"
   id="namedview47"
   inkscape:window-height="480"
   inkscape:window-width="640"
   inkscape:pageshadow="2"
   inkscape:pageopacity="0"
   guidetolerance="10"
   gridtolerance="10"
   objecttolerance="10"
   borderopacity="1"
   bordercolor="#666666"
   pagecolor="#ffffff" />
<g
   style="fill:#ff0000"
   id="g14">
	<g
   style="fill:#ff0000"
   id="g12">
		<g
   style="fill:#ff0000"
   id="g10">
			<path
   style="fill:#ff0000"
   id="path2"
   d="M277.336,320V64c0-35.346-28.654-64-64-64c-35.346,0-64,28.654-64,64H64.003v42.667h85.333V128H106.67v42.667h42.667V192     H106.67v42.667h42.667V256H64.003v42.667h85.333V320c-47.128,35.346-56.68,102.205-21.333,149.333     c35.346,47.128,102.205,56.68,149.333,21.333s56.68-102.205,21.333-149.333C292.605,333.247,285.422,326.064,277.336,320z      M213.336,469.333c-35.346,0-64-28.654-64-64c-0.015-22.88,12.186-44.027,32-55.467c6.83-3.937,10.932-11.321,10.667-19.2V64     c0-11.782,9.551-21.333,21.333-21.333c11.782,0,21.333,9.551,21.333,21.333v268.8c-0.265,7.879,3.837,15.263,10.667,19.2     c19.169,11.051,31.27,31.219,32,53.333C277.336,440.68,248.683,469.333,213.336,469.333z" />
			<circle
   style="fill:#ff0000"
   id="circle4"
   r="21.333"
   cy="405.333"
   cx="213.336" />
			<circle
   style="fill:#ff0000"
   id="circle6"
   r="21.333"
   cy="85.333"
   cx="341.337" />
			<path
   style="fill:#ff0000"
   id="path8"
   d="M426.67,128h21.333V85.333H426.67c-35.346,0-64,28.654-64,64c0,35.346,28.654,64,64,64h21.333v-42.667H426.67     c-11.782,0-21.333-9.551-21.333-21.333C405.337,137.551,414.888,128,426.67,128z" />
		</g>
	</g>
</g>
<g
   id="g16">
</g>
<g
   id="g18">
</g>
<g
   id="g20">
</g>
<g
   id="g22">
</g>
<g
   id="g24">
</g>
<g
   id="g26">
</g>
<g
   id="g28">
</g>
<g
   id="g30">
</g>
<g
   id="g32">
</g>
<g
   id="g34">
</g>
<g
   id="g36">
</g>
<g
   id="g38">
</g>
<g
   id="g40">
</g>
<g
   id="g42">
</g>
<g
   id="g44">
</g>
</svg>
