<?xml version="1.0" encoding="UTF-8" standalone="no"?>
<svg
   xmlns:dc="http://purl.org/dc/elements/1.1/"
   xmlns:cc="http://creativecommons.org/ns#"
   xmlns:rdf="http://www.w3.org/1999/02/22-rdf-syntax-ns#"
   xmlns:svg="http://www.w3.org/2000/svg"
   xmlns="http://www.w3.org/2000/svg"
   xmlns:sodipodi="http://sodipodi.sourceforge.net/DTD/sodipodi-0.dtd"
   xmlns:inkscape="http://www.inkscape.org/namespaces/inkscape"
   sodipodi:docname="battery-67.svg"
   inkscape:version="1.0 (4035a4fb49, 2020-05-01)"
   id="svg8"
   version="1.1"
   viewBox="0 0 180.62222 180.62222"
   height="512pt"
   width="512pt">
  <defs
     id="defs2" />
  <sodipodi:namedview
     inkscape:pagecheckerboard="true"
     width="512mm"
     units="pt"
     showgrid="false"
     inkscape:document-rotation="0"
     inkscape:current-layer="g856"
     inkscape:document-units="mm"
     inkscape:cy="348.02212"
     inkscape:cx="400"
     inkscape:zoom="0.94"
     inkscape:pageshadow="2"
     inkscape:pageopacity="0"
     borderopacity="1.0"
     bordercolor="#666666"
     pagecolor="#808080"
     id="base" />
  <metadata
     id="metadata5">
    <rdf:RDF>
      <cc:Work
         rdf:about="">
        <dc:format>image/svg+xml</dc:format>
        <dc:type
           rdf:resource="http://purl.org/dc/dcmitype/StillImage" />
        <dc:title></dc:title>
      </cc:Work>
    </rdf:RDF>
  </metadata>
  <g
     style="display:inline"
     id="layer1"
     inkscape:groupmode="layer"
     inkscape:label="Layer 1">
    <g
       style="fill:#ffffff"
       transform="matrix(0.35126991,0,0,0.35126991,38.032574,0.50771804)"
       id="g856">
      <path
         style="fill:#ffffff"
         d="M 0,85.332031 V 469.33203 C 0,492.89844 19.101562,512 42.667969,512 H 256 c 23.56641,0 42.66797,-19.10156 42.66797,-42.66797 V 85.332031 Z M 256,448 c 0,11.76172 -9.57031,21.33203 -21.33203,21.33203 H 64 C 52.238281,469.33203 42.667969,459.76172 42.667969,448 V 128 H 256 Z m 0,0"
         id="path833" />
      <path
         style="fill:#ffffff"
         d="M 234.66797,21.332031 C 234.66797,9.550781 225.11328,0 213.33203,0 H 85.332031 C 73.550781,0 64,9.550781 64,21.332031 V 64 h 170.66797 z m 0,0"
         id="path835" />
      <path
         style="fill:#ffffff"
         d="M 64,362.66797 H 234.66797 V 448 H 64 Z m 0,0"
         id="path839" />
      <path
         style="fill:#ffffff"
         d="m 64,256 h 170.66797 v 85.33203 H 64 Z m 0,0"
         id="path841" />
    </g>
  </g>
</svg>
