<?xml version="1.0" encoding="UTF-8" standalone="no"?>
<svg
   xmlns:dc="http://purl.org/dc/elements/1.1/"
   xmlns:cc="http://creativecommons.org/ns#"
   xmlns:rdf="http://www.w3.org/1999/02/22-rdf-syntax-ns#"
   xmlns:svg="http://www.w3.org/2000/svg"
   xmlns="http://www.w3.org/2000/svg"
   xmlns:sodipodi="http://sodipodi.sourceforge.net/DTD/sodipodi-0.dtd"
   xmlns:inkscape="http://www.inkscape.org/namespaces/inkscape"
   inkscape:version="1.0 (4035a4fb49, 2020-05-01)"
   sodipodi:docname="flag-on-battery.svg"
   id="svg8"
   version="1.1"
   width="512pt"
   viewBox="0 -32 512 512"
   height="512pt">
  <metadata
     id="metadata14">
    <rdf:RDF>
      <cc:Work
         rdf:about="">
        <dc:format>image/svg+xml</dc:format>
        <dc:type
           rdf:resource="http://purl.org/dc/dcmitype/StillImage" />
        <dc:title></dc:title>
      </cc:Work>
    </rdf:RDF>
  </metadata>
  <defs
     id="defs12" />
  <sodipodi:namedview
     inkscape:current-layer="svg8"
     inkscape:cy="341.33333"
     inkscape:cx="341.33333"
     inkscape:zoom="1.0766602"
     inkscape:pagecheckerboard="true"
     showgrid="false"
     id="namedview10"
     inkscape:window-height="480"
     inkscape:window-width="640"
     inkscape:pageshadow="2"
     inkscape:pageopacity="0"
     guidetolerance="10"
     gridtolerance="10"
     objecttolerance="10"
     borderopacity="1"
     bordercolor="#666666"
     pagecolor="#ffffff" />
  <path
     style="fill:#ffffff"
     id="path2"
     d="m448 21.332031c0-11.78125-9.550781-21.332031-21.332031-21.332031h-85.335938c-11.78125 0-21.332031 9.550781-21.332031 21.332031v42.667969h128zm0 0" />
  <path
     style="fill:#ffffff"
     id="path4"
     d="m192 21.332031c0-11.78125-9.550781-21.332031-21.332031-21.332031h-85.335938c-11.78125 0-21.332031 9.550781-21.332031 21.332031v42.667969h128zm0 0" />
  <path
     style="fill:#ffffff"
     id="path6"
     d="m0 85.332031v320c0 11.78125 9.550781 21.335938 21.332031 21.335938h42.667969v21.332031h42.667969v-21.332031h298.664062v21.332031h42.667969v-21.332031h42.667969c11.78125 0 21.332031-9.554688 21.332031-21.335938v-320zm192 128h-42.667969v42.667969h-42.664062v-42.667969h-42.667969v-42.664062h42.667969v-42.667969h42.664062v42.667969h42.667969zm256 0h-128v-42.664062h128zm0 0" />
</svg>
