<?xml version="1.0" encoding="UTF-8" standalone="no"?>
<svg
   xmlns:dc="http://purl.org/dc/elements/1.1/"
   xmlns:cc="http://creativecommons.org/ns#"
   xmlns:rdf="http://www.w3.org/1999/02/22-rdf-syntax-ns#"
   xmlns:svg="http://www.w3.org/2000/svg"
   xmlns="http://www.w3.org/2000/svg"
   xmlns:sodipodi="http://sodipodi.sourceforge.net/DTD/sodipodi-0.dtd"
   xmlns:inkscape="http://www.inkscape.org/namespaces/inkscape"
   inkscape:version="1.0 (4035a4fb49, 2020-05-01)"
   sodipodi:docname="plug.svg"
   version="1.1"
   width="512"
   viewBox="0 0 24 24"
   height="512"
   enable-background="new 0 0 24 24"
   id="bold">
  <metadata
     id="metadata15">
    <rdf:RDF>
      <cc:Work
         rdf:about="">
        <dc:format>image/svg+xml</dc:format>
        <dc:type
           rdf:resource="http://purl.org/dc/dcmitype/StillImage" />
        <dc:title></dc:title>
      </cc:Work>
    </rdf:RDF>
  </metadata>
  <defs
     id="defs13" />
  <sodipodi:namedview
     inkscape:current-layer="bold"
     inkscape:cy="256"
     inkscape:cx="256"
     inkscape:zoom="1.4355469"
     inkscape:pagecheckerboard="true"
     showgrid="false"
     id="namedview11"
     inkscape:window-height="480"
     inkscape:window-width="640"
     inkscape:pageshadow="2"
     inkscape:pageopacity="0"
     guidetolerance="10"
     gridtolerance="10"
     objecttolerance="10"
     borderopacity="1"
     bordercolor="#666666"
     pagecolor="#ffffff" />
  <path
     style="fill:#ffffff"
     id="path2"
     d="m9 1.5v5h-3v-5c0-.83.67-1.5 1.5-1.5s1.5.67 1.5 1.5z" />
  <path
     style="fill:#ffffff"
     id="path4"
     d="m18 1.5v5h-3v-5c0-.83.67-1.5 1.5-1.5s1.5.67 1.5 1.5z" />
  <path
     style="fill:#ffffff"
     id="path6"
     d="m12.25 19h-.5c-4.825 0-8.75-3.925-8.75-8.75v-.5c0-.965.785-1.75 1.75-1.75h14.5c.965 0 1.75.785 1.75 1.75v.5c0 4.825-3.925 8.75-8.75 8.75z" />
  <path
     style="fill:#ffffff"
     id="path8"
     d="m15 24c-.553 0-1-.448-1-1 0-.276-.225-.5-.5-.5-1.379 0-2.5-1.122-2.5-2.5v-2c0-.552.447-1 1-1s1 .448 1 1v2c0 .276.225.5.5.5 1.379 0 2.5 1.122 2.5 2.5 0 .552-.447 1-1 1z" />
</svg>
